<svg width="134" height="134" xmlns="http://www.w3.org/2000/svg" viewBox="0 0 100 100" preserveAspectRatio="xMidYMid" class="uil-default">
	<path fill="none" class="bk" d="M0 0h100v100H0z"/>
<rect x="48.5" y="37.5" width="3" height="25" rx="0" ry="0" fill="#E21E62" transform="translate(0 -25)">
	<animate attributeName="opacity" from="1" to="0" dur="1s" begin="0s" repeatCount="indefinite"/>
</rect>
<rect x="48.5" y="37.5" width="3" height="25" rx="0" ry="0" fill="#E21E62" transform="rotate(30 96.65 62.5)">
	<animate attributeName="opacity" from="1" to="0" dur="1s" begin="0.08333333333333333s" repeatCount="indefinite"/>
</rect>
<rect x="48.5" y="37.5" width="3" height="25" rx="0" ry="0" fill="#E21E62" transform="rotate(60 71.65 62.5)">
	<animate attributeName="opacity" from="1" to="0" dur="1s" begin="0.16666666666666666s" repeatCount="indefinite"/>
</rect>
<rect x="48.5" y="37.5" width="3" height="25" rx="0" ry="0" fill="#E21E62" transform="rotate(90 62.5 62.5)">
	<animate attributeName="opacity" from="1" to="0" dur="1s" begin="0.25s" repeatCount="indefinite"/>
</rect>
<rect x="48.5" y="37.5" width="3" height="25" rx="0" ry="0" fill="#E21E62" transform="rotate(120 57.217 62.5)">
	<animate attributeName="opacity" from="1" to="0" dur="1s" begin="0.3333333333333333s" repeatCount="indefinite"/>
</rect>
<rect x="48.5" y="37.5" width="3" height="25" rx="0" ry="0" fill="#E21E62" transform="rotate(150 53.35 62.5)">
	<animate attributeName="opacity" from="1" to="0" dur="1s" begin="0.4166666666666667s" repeatCount="indefinite"/>
</rect>
<rect x="48.5" y="37.5" width="3" height="25" rx="0" ry="0" fill="#E21E62" transform="rotate(180 50 62.5)">
	<animate attributeName="opacity" from="1" to="0" dur="1s" begin="0.5s" repeatCount="indefinite"/>
</rect>
<rect x="48.5" y="37.5" width="3" height="25" rx="0" ry="0" fill="#E21E62" transform="rotate(-150 46.65 62.5)">
	<animate attributeName="opacity" from="1" to="0" dur="1s" begin="0.5833333333333334s" repeatCount="indefinite"/>
</rect>
<rect x="48.5" y="37.5" width="3" height="25" rx="0" ry="0" fill="#E21E62" transform="rotate(-120 42.783 62.5)">
	<animate attributeName="opacity" from="1" to="0" dur="1s" begin="0.6666666666666666s" repeatCount="indefinite"/>
</rect>
<rect x="48.5" y="37.5" width="3" height="25" rx="0" ry="0" fill="#E21E62" transform="rotate(-90 37.5 62.5)">
	<animate attributeName="opacity" from="1" to="0" dur="1s" begin="0.75s" repeatCount="indefinite"/>
</rect>
<rect x="48.5" y="37.5" width="3" height="25" rx="0" ry="0" fill="#E21E62" transform="rotate(-60 28.35 62.5)">
	<animate attributeName="opacity" from="1" to="0" dur="1s" begin="0.8333333333333334s" repeatCount="indefinite"/>
</rect>
<rect x="48.5" y="37.5" width="3" height="25" rx="0" ry="0" fill="#E21E62" transform="rotate(-30 3.35 62.5)">
	<animate attributeName="opacity" from="1" to="0" dur="1s" begin="0.9166666666666666s" repeatCount="indefinite"/>
</rect>
</svg>